PathFileType	4	(X/Y/Z)	C:\Users\WrightLab\Desktop\Jo\P2_Trial36.trc
DataRate	CameraRate	NumFrames	NumMarkers	Units	OrigDataRate	OrigDataStartFrame	OrigNumFrames
100.00	100.00	       13	19	mm	100.00	401	       641
Frame#	Time	Headset_Front			Headset_Back			Headset_Left			Headset_Right			Left_Shoulder			Right_Shoulder			Sternum			C7			Left Elbow			Right Elbow			Left Wrist			Right Wrist			Left ASIS			Right ASIS			S2			Left Knee			Right Knee			Left Ankle			Right Ankle			
		X1	Y1	Z1	X2	Y2	Z2	X3	Y3	Z3	X4	Y4	Z4	X5	Y5	Z5	X6	Y6	Z6	X7	Y7	Z7	X8	Y8	Z8	X9	Y9	Z9	X10	Y10	Z10	X11	Y11	Z11	X12	Y12	Z12	X13	Y13	Z13	X14	Y14	Z14	X15	Y15	Z15	X16	Y16	Z16	X17	Y17	Z17	X18	Y18	Z18	X19	Y19	Z19	

401	4.000	65.32507	1463.80920	1387.54724	80.11414	1697.80554	1188.91980	184.81857	1580.01306	1261.55750	-35.43103	1556.58337	1325.46179	197.77684	1450.93677	1131.11816	-124.77582	1447.89478	1189.76038	44.51621	1328.18604	1220.02429	8.15083	1447.23572	1053.04199	238.89740	1244.76367	1251.87549	-245.57004	1138.72412	1088.66016	314.88947	1180.90088	1138.86536	-324.79352	901.04346	1073.62512	114.02712	1033.70361	1239.42297	-18.58524	1009.57135	1266.69019	14.67467	960.64954	992.78284	206.98611	475.15799	971.68274	-33.96753	565.62067	1225.70154	199.61868	155.98299	803.10132	48.48600	208.91301	1442.24817	
402	4.010	64.27299	1465.13159	1397.29285	79.41386	1699.27014	1198.20203				-35.89972	1557.50500	1333.90808	198.51924	1452.17419	1140.40637	-125.59045	1448.84338	1197.90161	44.28847	1329.24646	1229.75085	9.05568	1447.27966	1062.25122	238.66451	1245.73401	1264.07654	-244.23792	1138.46191	1097.42798	314.44403	1181.55713	1150.89490	-321.29779	899.48407	1082.55652	114.41587	1034.40613	1250.24048	-18.89081	1009.57959	1277.31909	14.85424	960.58594	1003.96906	207.88086	476.63184	984.07312	-34.53233	567.35773	1237.12073	200.68282	158.76595	813.17065	48.14828	203.74239	1446.31006	
403	4.020	62.45740	1465.80383	1405.22668	79.06122	1700.67041	1207.36023				-37.47695	1558.97034	1342.38171	198.99997	1452.86768	1151.06006	-125.19677	1449.37842	1205.95593	44.12350	1330.83093	1239.30139	9.71467	1447.86426	1071.11511	237.68578	1247.23779	1273.87292	-242.05653	1137.83728	1107.29150	313.44312	1182.13831	1162.44153	-318.11078	898.49139	1092.37439	114.80487	1035.41016	1262.84338	-18.76759	1010.64594	1287.87183	14.42855	961.63849	1015.03967	207.45758	478.24698	999.90210	-35.88366	568.71008	1248.80420	200.65620	163.87254	823.07422	45.98795	199.14714	1447.90662	
404	4.030	60.41655	1467.80469	1414.65735	77.76962	1701.96814	1216.32886	181.05162	1584.27014	1292.17480	-39.65784	1559.21265	1346.90540	198.71577	1454.06372	1161.02869	-125.25191	1450.51428	1214.03613	43.72782	1332.06750	1249.18018	10.57021	1448.74146	1079.89441	237.65437	1249.46252	1286.00623	-241.00635	1138.12927	1116.16553	312.58206	1182.95520	1174.00696	-314.38461	897.69104	1102.86890	114.43101	1036.14673	1272.77209	-19.04247	1011.94141	1298.18445	14.78697	961.83966	1025.32556	206.66432	478.90326	1017.84314	-39.10069	570.78387	1260.69629	199.94095	168.71927	834.72284	44.96649	194.36008	1448.97778	
405	4.040	58.28655	1468.79431	1423.89978	76.19971	1703.27588	1224.83777				-41.13568	1560.68567	1355.02844	198.97704	1455.36841	1170.88965	-125.39852	1451.46484	1222.16223	43.46327	1333.67896	1258.85449	11.16537	1449.21704	1088.99756	236.63747	1250.65015	1295.49084	-238.73668	1137.74805	1126.68567	311.75110	1183.30225	1185.06189	-310.74631	896.90259	1114.04016	113.77690	1036.98682	1282.37231	-20.00326	1014.17664	1308.35693	15.23175	962.25940	1035.64575	205.06891	479.15820	1036.61584	-41.22686	571.91449	1272.91785	198.01538	174.21519	847.84930	42.33934	189.37563	1450.67297	
406	4.050	56.55537	1470.90393	1433.13171	75.89330	1703.74475	1233.05737	178.89328	1588.76831	1313.57788	-43.34435	1561.72290	1362.87744	198.95734	1455.62146	1181.31226	-125.57707	1452.66418	1230.12866	42.99269	1334.77966	1268.64429	12.16103	1449.32043	1097.67639	235.91212	1253.32324	1308.15381	-237.37245	1138.11365	1136.97412	310.01517	1183.11914	1196.94666	-307.28372	896.24261	1125.69812	113.35334	1038.84509	1293.15942	-21.00919	1016.58374	1317.99255	17.04815	962.67255	1045.85999	203.00726	477.01068	1057.65930	-45.39048	574.55231	1285.19043	196.08853	180.94887	861.70721	40.38491	183.91797	1450.69250	
407	4.060	54.20234	1472.02527	1442.15747	74.31367	1704.53638	1241.16675	177.43443	1588.51672	1317.92676	-45.28608	1562.56775	1370.69543	199.09074	1457.33533	1190.95703	-126.05504	1454.04919	1237.87463	42.03302	1336.34485	1278.12585	12.55160	1450.36523	1106.27258	234.76222	1254.31641	1316.83960	-236.56929	1137.69739	1146.37537	308.66357	1183.56140	1207.23169	-303.72638	895.66333	1138.44641	112.72497	1040.20605	1302.33948	-21.86218	1018.68805	1326.48438	17.08613	963.16150	1054.85437	204.90410	479.43753	1081.62988	-49.16248	575.29590	1296.87842	195.48688	187.09850	878.33203	37.75085	179.42885	1450.39136	
408	4.070	52.36644	1473.79529	1450.89355	72.30247	1705.65588	1249.12146				-47.28142	1563.64124	1378.75183	198.92325	1457.80469	1200.95020	-125.52245	1456.00903	1246.16638	40.83622	1337.62268	1287.61523	13.06865	1450.66565	1114.62769	234.67151	1257.31311	1328.52332	-235.26559	1137.74036	1157.04785	307.99963	1184.50891	1219.03918	-300.17297	894.64783	1151.29028	110.76547	1041.61316	1312.57361	-23.05089	1020.79645	1336.35938	18.24827	963.50836	1065.05359	209.28191	481.96982	1107.13684	-53.84397	575.77972	1308.96692	194.56068	194.14848	894.05280	35.00515	175.07309	1449.45825	
409	4.080	50.05801	1475.80603	1459.72510	72.52729	1705.94653	1257.00769	174.47752	1592.02930	1338.98755	-48.79313	1564.83093	1386.26355	198.87920	1459.03503	1210.18323	-125.87244	1457.09167	1253.66736	40.31423	1339.02368	1296.61536	13.32645	1451.42676	1123.25610	233.13934	1259.26953	1337.97131	-233.66144	1137.31323	1167.97986	305.83633	1185.17017	1229.18970	-296.52020	893.54767	1165.05164	110.08799	1042.72351	1321.78955	-24.40840	1021.91956	1345.04993	19.00978	963.77405	1073.77026	215.73259	485.11758	1131.96179	-59.62246	575.71948	1320.39917	195.03366	201.72615	912.72089	32.27916	170.60271	1448.53845	
410	4.090	47.82351	1477.80286	1469.41211	70.72462	1707.35535	1265.08667	172.88466	1593.32166	1347.37146	-50.48405	1565.81812	1394.21692	198.39989	1460.77856	1220.19324	-126.73073	1456.62317	1260.58142	39.30436	1340.36304	1305.43555	13.57488	1452.37732	1131.16748	233.08148	1260.68140	1347.71741	-232.61365	1136.79993	1178.29590	305.24359	1185.66711	1240.40442	-293.31973	892.48169	1178.86169	109.34659	1044.33752	1331.12866	-25.38218	1023.23138	1352.19592	20.67559	963.80310	1083.70642	222.31895	487.07425	1154.72522	-63.53676	575.23730	1332.55530	195.72145	209.10690	931.33826	28.72141	166.46458	1447.70288	
411	4.100	45.76744	1479.14893	1477.33704	69.34046	1708.56616	1273.33044	171.72618	1595.07690	1358.03723	-52.47114	1566.80164	1401.68018	198.03062	1461.35583	1229.73096	-127.40678	1457.44373	1267.99658	38.67605	1341.67554	1314.08948	13.96634	1453.01453	1139.70691	231.74345	1262.79272	1358.55579	-231.30919	1136.43457	1188.62708	303.08392	1185.92346	1250.04333	-289.63763	891.14960	1193.82703	107.87795	1045.11108	1340.86572	-26.56272	1023.82892	1361.47058	21.39112	964.56976	1092.20044	227.37640	487.73062	1178.91052	-69.27739	574.71655	1344.73645	197.62576	218.51747	950.61304	26.16443	162.93086	1446.32666	
412	4.110	43.73976	1480.73242	1486.68225	69.25272	1709.29077	1281.67065	169.94389	1596.71497	1366.19897	-53.81382	1568.26221	1408.51123	197.82471	1462.95154	1238.28223	-127.58871	1458.27649	1275.18140	37.93983	1343.00830	1322.64087	14.33964	1454.08215	1147.32434	230.28204	1264.43372	1368.01440	-230.04453	1135.78687	1199.57324	301.52008	1187.71057	1260.77283	-286.67474	890.36176	1209.07336	106.45371	1046.36975	1350.46533	-28.61000	1024.95557	1369.66003	22.69722	965.27264	1100.69580	232.30838	487.90070	1202.28430	-76.18809	574.65063	1356.40149	200.56554	226.52368	971.50641	22.31263	160.25699	1444.67749	
413	4.120	41.28547	1482.47705	1495.06775	67.60046	1710.96790	1289.97009				-55.36380	1569.66321	1416.46936	197.41385	1464.64111	1247.37952	-128.67873	1459.35181	1282.54236	37.33113	1344.44861	1331.09509	14.09900	1455.57141	1155.96558	229.81941	1267.08521	1377.95044	-229.08598	1135.44763	1210.43848	299.63766	1188.49988	1270.57349	-283.82626	889.34680	1224.61548	104.93471	1047.56213	1359.60486	-29.69570	1025.18713	1378.04724	24.24003	965.86603	1108.35901	237.36478	487.87952	1226.59131	-81.63064	575.09949	1367.15369	203.35358	233.98470	992.20270	20.59836	155.31409	1434.32458	
